<?xml version="1.0" encoding="utf-8"?>
<!-- Generator: Adobe Illustrator 23.0.2, SVG Export Plug-In . SVG Version: 6.00 Build 0)  -->
<svg version="1.1" id="Layer_1" xmlns="http://www.w3.org/2000/svg" xmlns:xlink="http://www.w3.org/1999/xlink" x="0px" y="0px"
	 viewBox="0 0 2500 606" style="enable-background:new 0 0 2500 606;" xml:space="preserve">
<style type="text/css">
	.st0{fill:#FFFFFF;}
</style>
<path class="st0" d="M1098.5,66.7C1056.1,24.2,998.5,0,937.9,0H606.1v606h227.3V227.3h72.7c19.7,0,39.4,7.6,53,22.7l78.8,78.8
	c13.6,13.6,22.7,33.3,22.7,53V606h227.3V350c0-60.6-24.2-118.2-66.7-160.6C1221.2,189.4,1098.5,66.7,1098.5,66.7z M2272.6,0v224.2
	c0,19.7-7.6,39.4-22.7,53l-78.8,78.8c-13.6,13.6-33.3,22.7-53,22.7H2009c22.7-36.4,36.4-78.8,36.4-122.7V0h-227.3v224.2
	c0,19.7-7.6,39.4-22.7,53l-78.8,78.8c-13.6,13.6-33.3,22.7-53,22.7h-72.7V0h-227.3v606h331.8c60.6,0,118.2-24.2,160.6-66.7
	l75.8-75.8V606h218.2c60.6,0,118.2-24.2,160.6-66.7l122.7-122.7c42.4-42.4,66.7-100,66.7-160.6V0H2272.6z M0.1,227.3h151.5V606
	h227.3V227.3h151.5V0H0.1V227.3z"/>
</svg>
